  0
SECTION
  2
BLOCKS
  0
ENDSEC
  0
SECTION
  2
ENTITIES
  0
LINE
  8
0
 10
129.612
 20
-31.5338
 11
129.738
 21
-31.5246
  0
LINE
  8
0
 10
129.738
 20
-31.5246
 11
129.862
 21
-31.5075
  0
LINE
  8
0
 10
129.862
 20
-31.5075
 11
129.985
 21
-31.4827
  0
LINE
  8
0
 10
129.985
 20
-31.4827
 11
130.107
 21
-31.4502
  0
LINE
  8
0
 10
130.107
 20
-31.4502
 11
130.226
 21
-31.4101
  0
LINE
  8
0
 10
130.226
 20
-31.4101
 11
130.342
 21
-31.3626
  0
LINE
  8
0
 10
130.342
 20
-31.3626
 11
130.455
 21
-31.308
  0
LINE
  8
0
 10
130.455
 20
-31.308
 11
130.565
 21
-31.2463
  0
LINE
  8
0
 10
130.565
 20
-31.2463
 11
130.67
 21
-31.1778
  0
LINE
  8
0
 10
130.67
 20
-31.1778
 11
130.771
 21
-31.1029
  0
LINE
  8
0
 10
130.771
 20
-31.1029
 11
130.867
 21
-31.0218
  0
LINE
  8
0
 10
130.867
 20
-31.0218
 11
130.958
 21
-30.9349
  0
LINE
  8
0
 10
130.958
 20
-30.9349
 11
131.043
 21
-30.8424
  0
LINE
  8
0
 10
131.043
 20
-30.8424
 11
131.122
 21
-30.7447
  0
LINE
  8
0
 10
131.122
 20
-30.7447
 11
131.195
 21
-30.6423
  0
LINE
  8
0
 10
131.195
 20
-30.6423
 11
131.261
 21
-30.5355
  0
LINE
  8
0
 10
131.261
 20
-30.5355
 11
144.93
 21
-6.86057
  0
LINE
  8
0
 10
144.93
 20
-6.86057
 11
144.989
 21
-6.74983
  0
LINE
  8
0
 10
144.989
 20
-6.74983
 11
145.041
 21
-6.6356
  0
LINE
  8
0
 10
145.041
 20
-6.6356
 11
145.086
 21
-6.5183
  0
LINE
  8
0
 10
145.086
 20
-6.5183
 11
145.124
 21
-6.39841
  0
LINE
  8
0
 10
145.124
 20
-6.39841
 11
145.154
 21
-6.2764
  0
LINE
  8
0
 10
145.154
 20
-6.2764
 11
145.176
 21
-6.15274
  0
LINE
  8
0
 10
145.176
 20
-6.15274
 11
145.19
 21
-6.02792
  0
LINE
  8
0
 10
145.19
 20
-6.02792
 11
145.197
 21
-5.90245
  0
LINE
  8
0
 10
145.197
 20
-5.90245
 11
145.196
 21
-5.77682
  0
LINE
  8
0
 10
145.196
 20
-5.77682
 11
145.187
 21
-5.6515
  0
LINE
  8
0
 10
145.187
 20
-5.6515
 11
145.169
 21
-5.52704
  0
LINE
  8
0
 10
145.169
 20
-5.52704
 11
145.145
 21
-5.40387
  0
LINE
  8
0
 10
145.145
 20
-5.40387
 11
145.112
 21
-5.2825
  0
LINE
  8
0
 10
145.112
 20
-5.2825
 11
145.072
 21
-5.16342
  0
LINE
  8
0
 10
145.072
 20
-5.16342
 11
145.025
 21
-5.04709
  0
LINE
  8
0
 10
145.025
 20
-5.04709
 11
144.97
 21
-4.93398
  0
LINE
  8
0
 10
144.97
 20
-4.93398
 11
144.908
 21
-4.82451
  0
LINE
  8
0
 10
144.908
 20
-4.82451
 11
144.84
 21
-4.71915
  0
LINE
  8
0
 10
144.84
 20
-4.71915
 11
144.765
 21
-4.61827
  0
LINE
  8
0
 10
144.765
 20
-4.61827
 11
144.684
 21
-4.52231
  0
LINE
  8
0
 10
144.684
 20
-4.52231
 11
144.597
 21
-4.43163
  0
LINE
  8
0
 10
144.597
 20
-4.43163
 11
144.504
 21
-4.34657
  0
LINE
  8
0
 10
144.504
 20
-4.34657
 11
144.407
 21
-4.26752
  0
LINE
  8
0
 10
144.407
 20
-4.26752
 11
144.304
 21
-4.19473
  0
LINE
  8
0
 10
144.304
 20
-4.19473
 11
144.197
 21
-4.12852
  0
LINE
  8
0
 10
144.197
 20
-4.12852
 11
113.3
 21
13.7101
  0
LINE
  8
0
 10
113.3
 20
13.7101
 11
113.3
 21
73.2
  0
LINE
  8
0
 10
113.3
 20
73.2
 11
113.296
 21
73.3256
  0
LINE
  8
0
 10
113.296
 20
73.3256
 11
113.284
 21
73.4507
  0
LINE
  8
0
 10
113.284
 20
73.4507
 11
113.265
 21
73.5748
  0
LINE
  8
0
 10
113.265
 20
73.5748
 11
113.237
 21
73.6974
  0
LINE
  8
0
 10
113.237
 20
73.6974
 11
113.202
 21
73.818
  0
LINE
  8
0
 10
113.202
 20
73.818
 11
113.16
 21
73.9362
  0
LINE
  8
0
 10
113.16
 20
73.9362
 11
113.11
 21
74.0516
  0
LINE
  8
0
 10
113.11
 20
74.0516
 11
113.053
 21
74.1635
  0
LINE
  8
0
 10
113.053
 20
74.1635
 11
112.989
 21
74.2717
  0
LINE
  8
0
 10
112.989
 20
74.2717
 11
112.918
 21
74.3756
  0
LINE
  8
0
 10
112.918
 20
74.3756
 11
112.841
 21
74.4748
  0
LINE
  8
0
 10
112.841
 20
74.4748
 11
112.758
 21
74.5691
  0
LINE
  8
0
 10
112.758
 20
74.5691
 11
112.669
 21
74.6579
  0
LINE
  8
0
 10
112.669
 20
74.6579
 11
112.575
 21
74.741
  0
LINE
  8
0
 10
112.575
 20
74.741
 11
112.476
 21
74.818
  0
LINE
  8
0
 10
112.476
 20
74.818
 11
112.372
 21
74.8887
  0
LINE
  8
0
 10
112.372
 20
74.8887
 11
112.264
 21
74.9526
  0
LINE
  8
0
 10
112.264
 20
74.9526
 11
112.152
 21
75.0096
  0
LINE
  8
0
 10
112.152
 20
75.0096
 11
112.036
 21
75.0596
  0
LINE
  8
0
 10
112.036
 20
75.0596
 11
111.918
 21
75.1021
  0
LINE
  8
0
 10
111.918
 20
75.1021
 11
111.797
 21
75.1372
  0
LINE
  8
0
 10
111.797
 20
75.1372
 11
111.675
 21
75.1646
  0
LINE
  8
0
 10
111.675
 20
75.1646
 11
111.551
 21
75.1842
  0
LINE
  8
0
 10
111.551
 20
75.1842
 11
111.426
 21
75.196
  0
LINE
  8
0
 10
111.426
 20
75.196
 11
111.3
 21
75.2
  0
LINE
  8
0
 10
111.3
 20
75.2
 11
3
 21
75.2
  0
LINE
  8
0
 10
3
 20
75.2
 11
2.8744
 21
75.196
  0
LINE
  8
0
 10
2.8744
 20
75.196
 11
2.74933
 21
75.1842
  0
LINE
  8
0
 10
2.74933
 20
75.1842
 11
2.62523
 21
75.1646
  0
LINE
  8
0
 10
2.62523
 20
75.1646
 11
2.50261
 21
75.1372
  0
LINE
  8
0
 10
2.50261
 20
75.1372
 11
2.38196
 21
75.1021
  0
LINE
  8
0
 10
2.38196
 20
75.1021
 11
2.26375
 21
75.0596
  0
LINE
  8
0
 10
2.26375
 20
75.0596
 11
2.14844
 21
75.0096
  0
LINE
  8
0
 10
2.14844
 20
75.0096
 11
2.03648
 21
74.9526
  0
LINE
  8
0
 10
2.03648
 20
74.9526
 11
1.92834
 21
74.8887
  0
LINE
  8
0
 10
1.92834
 20
74.8887
 11
1.82442
 21
74.818
  0
LINE
  8
0
 10
1.82442
 20
74.818
 11
1.72514
 21
74.741
  0
LINE
  8
0
 10
1.72514
 20
74.741
 11
1.63091
 21
74.6579
  0
LINE
  8
0
 10
1.63091
 20
74.6579
 11
1.54205
 21
74.5691
  0
LINE
  8
0
 10
1.54205
 20
74.5691
 11
1.45897
 21
74.4748
  0
LINE
  8
0
 10
1.45897
 20
74.4748
 11
1.38196
 21
74.3756
  0
LINE
  8
0
 10
1.38196
 20
74.3756
 11
1.31134
 21
74.2717
  0
LINE
  8
0
 10
1.31134
 20
74.2717
 11
1.24738
 21
74.1635
  0
LINE
  8
0
 10
1.24738
 20
74.1635
 11
1.19034
 21
74.0516
  0
LINE
  8
0
 10
1.19034
 20
74.0516
 11
1.14044
 21
73.9362
  0
LINE
  8
0
 10
1.14044
 20
73.9362
 11
1.09789
 21
73.818
  0
LINE
  8
0
 10
1.09789
 20
73.818
 11
1.06282
 21
73.6974
  0
LINE
  8
0
 10
1.06282
 20
73.6974
 11
1.03542
 21
73.5748
  0
LINE
  8
0
 10
1.03542
 20
73.5748
 11
1.01576
 21
73.4507
  0
LINE
  8
0
 10
1.01576
 20
73.4507
 11
1.00394
 21
73.3256
  0
LINE
  8
0
 10
1.00394
 20
73.3256
 11
1
 21
73.2
  0
LINE
  8
0
 10
1
 20
73.2
 11
1
 21
3
  0
LINE
  8
0
 10
1
 20
3
 11
1.00394
 21
2.8744
  0
LINE
  8
0
 10
1.00394
 20
2.8744
 11
1.01576
 21
2.74933
  0
LINE
  8
0
 10
1.01576
 20
2.74933
 11
1.03542
 21
2.62523
  0
LINE
  8
0
 10
1.03542
 20
2.62523
 11
1.06282
 21
2.50261
  0
LINE
  8
0
 10
1.06282
 20
2.50261
 11
1.09789
 21
2.38196
  0
LINE
  8
0
 10
1.09789
 20
2.38196
 11
1.14044
 21
2.26375
  0
LINE
  8
0
 10
1.14044
 20
2.26375
 11
1.19034
 21
2.14844
  0
LINE
  8
0
 10
1.19034
 20
2.14844
 11
1.24738
 21
2.03648
  0
LINE
  8
0
 10
1.24738
 20
2.03648
 11
1.31134
 21
1.92834
  0
LINE
  8
0
 10
1.31134
 20
1.92834
 11
1.38196
 21
1.82442
  0
LINE
  8
0
 10
1.38196
 20
1.82442
 11
1.45897
 21
1.72514
  0
LINE
  8
0
 10
1.45897
 20
1.72514
 11
1.54205
 21
1.63091
  0
LINE
  8
0
 10
1.54205
 20
1.63091
 11
1.63091
 21
1.54205
  0
LINE
  8
0
 10
1.63091
 20
1.54205
 11
1.72514
 21
1.45897
  0
LINE
  8
0
 10
1.72514
 20
1.45897
 11
1.82442
 21
1.38196
  0
LINE
  8
0
 10
1.82442
 20
1.38196
 11
1.92834
 21
1.31134
  0
LINE
  8
0
 10
1.92834
 20
1.31134
 11
2.03648
 21
1.24738
  0
LINE
  8
0
 10
2.03648
 20
1.24738
 11
2.14844
 21
1.19034
  0
LINE
  8
0
 10
2.14844
 20
1.19034
 11
2.26375
 21
1.14044
  0
LINE
  8
0
 10
2.26375
 20
1.14044
 11
2.38196
 21
1.09789
  0
LINE
  8
0
 10
2.38196
 20
1.09789
 11
2.50261
 21
1.06282
  0
LINE
  8
0
 10
2.50261
 20
1.06282
 11
2.62523
 21
1.03542
  0
LINE
  8
0
 10
2.62523
 20
1.03542
 11
2.74933
 21
1.01576
  0
LINE
  8
0
 10
2.74933
 20
1.01576
 11
2.8744
 21
1.00394
  0
LINE
  8
0
 10
2.8744
 20
1.00394
 11
3
 21
1
  0
LINE
  8
0
 10
3
 20
1
 11
72.6396
 21
1
  0
LINE
  8
0
 10
72.6396
 20
1
 11
128.529
 21
-31.2676
  0
LINE
  8
0
 10
128.529
 20
-31.2676
 11
128.639
 21
-31.327
  0
LINE
  8
0
 10
128.639
 20
-31.327
 11
128.754
 21
-31.3793
  0
LINE
  8
0
 10
128.754
 20
-31.3793
 11
128.871
 21
-31.4243
  0
LINE
  8
0
 10
128.871
 20
-31.4243
 11
128.991
 21
-31.4619
  0
LINE
  8
0
 10
128.991
 20
-31.4619
 11
129.113
 21
-31.4918
  0
LINE
  8
0
 10
129.113
 20
-31.4918
 11
129.237
 21
-31.5141
  0
LINE
  8
0
 10
129.237
 20
-31.5141
 11
129.361
 21
-31.5285
  0
LINE
  8
0
 10
129.361
 20
-31.5285
 11
129.487
 21
-31.5351
  0
LINE
  8
0
 10
129.487
 20
-31.5351
 11
129.612
 21
-31.5338
  0
ENDSEC
  0
SECTION
  2
OBJECTS
  0
DICTIONARY
  0
ENDSEC
  0
EOF
