999
DXF from OpenSCAD
  0
SECTION
  2
HEADER
  9
$ACADVER
  1
AC1006
  9
$INSBASE
 10
0.0
 20
0.0
 30
0.0
  9
$EXTMIN
 10
1
 20
-27.4107
  9
$EXTMAX
 10
142.816
 20
75.2
  9
$LINMIN
 10
1
 20
-27.4107
  9
$LINMAX
 10
142.816
 20
75.2
  0
ENDSEC
  0
SECTION
  2
TABLES
  0
TABLE
  2
LTYPE
 70
1
  0
LTYPE
  2
CONTINUOUS
 70
64
  3
Solid line
 72
65
 73
0
 40
0.000000
  0
ENDTAB
  0
TABLE
  2
LAYER
 70
6
  0
LAYER
  2
0
 70
64
 62
7
  6
CONTINUOUS
  0
ENDTAB
  0
TABLE
  2
STYLE
 70
0
  0
ENDTAB
  0
ENDSEC
  0
SECTION
  2
BLOCKS
  0
ENDSEC
  0
SECTION
  2
ENTITIES
  0
LWPOLYLINE
100
AcDbEntity
  8
0
100
AcDbPolyline
 90
132
 70
1
 10
131.994
 20
-27.4093
 10
132.119
 20
-27.4001
 10
132.244
 20
-27.3831
 10
132.367
 20
-27.3583
 10
132.488
 20
-27.3257
 10
132.607
 20
-27.2857
 10
132.723
 20
-27.2382
 10
132.837
 20
-27.1835
 10
132.946
 20
-27.1218
 10
133.051
 20
-27.0534
 10
133.152
 20
-26.9785
 10
133.248
 20
-26.8974
 10
133.339
 20
-26.8104
 10
133.424
 20
-26.7179
 10
133.503
 20
-26.6203
 10
133.576
 20
-26.5179
 10
133.642
 20
-26.4111
 10
142.548
 20
-10.985
 10
142.608
 20
-10.8743
 10
142.66
 20
-10.7601
 10
142.705
 20
-10.6428
 10
142.743
 20
-10.5229
 10
142.773
 20
-10.4008
 10
142.795
 20
-10.2772
 10
142.809
 20
-10.1524
 10
142.816
 20
-10.0269
 10
142.814
 20
-9.90127
 10
142.805
 20
-9.77596
 10
142.788
 20
-9.65149
 10
142.763
 20
-9.52832
 10
142.731
 20
-9.40696
 10
142.691
 20
-9.28788
 10
142.643
 20
-9.17155
 10
142.589
 20
-9.05843
 10
142.527
 20
-8.94897
 10
142.459
 20
-8.8436
 10
142.384
 20
-8.74273
 10
142.303
 20
-8.64676
 10
142.216
 20
-8.55608
 10
142.123
 20
-8.47103
 10
142.025
 20
-8.39196
 10
141.923
 20
-8.31918
 10
141.816
 20
-8.25297
 10
113.3
 20
8.21089
 10
113.3
 20
73.2
 10
113.296
 20
73.3256
 10
113.284
 20
73.4507
 10
113.265
 20
73.5748
 10
113.237
 20
73.6974
 10
113.202
 20
73.818
 10
113.16
 20
73.9362
 10
113.11
 20
74.0516
 10
113.053
 20
74.1635
 10
112.989
 20
74.2717
 10
112.918
 20
74.3756
 10
112.841
 20
74.4748
 10
112.758
 20
74.5691
 10
112.669
 20
74.6579
 10
112.575
 20
74.741
 10
112.476
 20
74.818
 10
112.372
 20
74.8887
 10
112.264
 20
74.9526
 10
112.152
 20
75.0097
 10
112.036
 20
75.0596
 10
111.918
 20
75.1021
 10
111.797
 20
75.1372
 10
111.675
 20
75.1646
 10
111.551
 20
75.1842
 10
111.426
 20
75.1961
 10
111.3
 20
75.2
 10
3
 20
75.2
 10
2.87442
 20
75.1961
 10
2.74933
 20
75.1842
 10
2.62524
 20
75.1646
 10
2.50262
 20
75.1372
 10
2.38197
 20
75.1021
 10
2.26375
 20
75.0596
 10
2.14844
 20
75.0097
 10
2.03649
 20
74.9526
 10
1.92835
 20
74.8887
 10
1.82443
 20
74.818
 10
1.72515
 20
74.741
 10
1.63091
 20
74.6579
 10
1.54206
 20
74.5691
 10
1.45897
 20
74.4748
 10
1.38197
 20
74.3756
 10
1.31135
 20
74.2717
 10
1.24739
 20
74.1635
 10
1.19035
 20
74.0516
 10
1.14045
 20
73.9362
 10
1.09789
 20
73.818
 10
1.06283
 20
73.6974
 10
1.03543
 20
73.5748
 10
1.01577
 20
73.4507
 10
1.00395
 20
73.3256
 10
1
 20
73.2
 10
1
 20
3
 10
1.00395
 20
2.87442
 10
1.01577
 20
2.74933
 10
1.03543
 20
2.62524
 10
1.06283
 20
2.50262
 10
1.09789
 20
2.38197
 10
1.14045
 20
2.26375
 10
1.19035
 20
2.14844
 10
1.24739
 20
2.03649
 10
1.31135
 20
1.92835
 10
1.38197
 20
1.82443
 10
1.45897
 20
1.72515
 10
1.54206
 20
1.63091
 10
1.63091
 20
1.54206
 10
1.72515
 20
1.45897
 10
1.82443
 20
1.38197
 10
1.92835
 20
1.31135
 10
2.03649
 20
1.24739
 10
2.14844
 20
1.19035
 10
2.26375
 20
1.14045
 10
2.38197
 20
1.09789
 10
2.50262
 20
1.06283
 10
2.62524
 20
1.03543
 10
2.74933
 20
1.01577
 10
2.87442
 20
1.00395
 10
3
 20
1
 10
82.1646
 20
1
 10
130.91
 20
-27.1432
 10
131.021
 20
-27.2025
 10
131.135
 20
-27.2548
 10
131.252
 20
-27.2999
 10
131.372
 20
-27.3374
 10
131.494
 20
-27.3674
 10
131.618
 20
-27.3896
 10
131.743
 20
-27.4041
 10
131.868
 20
-27.4107
  0
ENDSEC
  0
EOF
