999
DXF from OpenSCAD
  0
SECTION
  2
HEADER
  9
$ACADVER
  1
AC1006
  9
$INSBASE
 10
0.0
 20
0.0
 30
0.0
  9
$EXTMIN
 10
0
 20
-33.6336
  9
$EXTMAX
 10
147.296
 20
76.2
  9
$LINMIN
 10
0
 20
-33.6336
  9
$LINMAX
 10
147.296
 20
76.2
  0
ENDSEC
  0
SECTION
  2
TABLES
  0
TABLE
  2
LTYPE
 70
1
  0
LTYPE
  2
CONTINUOUS
 70
64
  3
Solid line
 72
65
 73
0
 40
0.000000
  0
ENDTAB
  0
TABLE
  2
LAYER
 70
6
  0
LAYER
  2
0
 70
64
 62
7
  6
CONTINUOUS
  0
ENDTAB
  0
TABLE
  2
STYLE
 70
0
  0
ENDTAB
  0
ENDSEC
  0
SECTION
  2
BLOCKS
  0
ENDSEC
  0
SECTION
  2
ENTITIES
  0
LWPOLYLINE
100
AcDbEntity
  8
0
100
AcDbPolyline
 90
7
 70
1
 10
147.296
 20
-4.7625
 10
114.3
 20
14.2875
 10
114.3
 20
76.2
 10
0
 20
76.2
 10
0
 20
0
 10
72.3717
 20
0
 10
130.627
 20
-33.6336
  0
LWPOLYLINE
100
AcDbEntity
  8
0
100
AcDbPolyline
 90
4
 70
1
 10
40.625
 20
59.675
 10
40.625
 20
73.675
 10
54.625
 20
73.675
 10
54.625
 20
59.675
  0
LWPOLYLINE
100
AcDbEntity
  8
0
100
AcDbPolyline
 90
4
 70
1
 10
78.725
 20
59.675
 10
78.725
 20
73.675
 10
92.725
 20
73.675
 10
92.725
 20
59.675
  0
LWPOLYLINE
100
AcDbEntity
  8
0
100
AcDbPolyline
 90
4
 70
1
 10
2.525
 20
59.675
 10
2.525
 20
73.675
 10
16.525
 20
73.675
 10
16.525
 20
59.675
  0
LWPOLYLINE
100
AcDbEntity
  8
0
100
AcDbPolyline
 90
4
 70
1
 10
21.575
 20
59.675
 10
21.575
 20
73.675
 10
35.575
 20
73.675
 10
35.575
 20
59.675
  0
LWPOLYLINE
100
AcDbEntity
  8
0
100
AcDbPolyline
 90
4
 70
1
 10
97.775
 20
59.675
 10
97.775
 20
73.675
 10
111.775
 20
73.675
 10
111.775
 20
59.675
  0
LWPOLYLINE
100
AcDbEntity
  8
0
100
AcDbPolyline
 90
4
 70
1
 10
59.675
 20
59.675
 10
59.675
 20
73.675
 10
73.675
 20
73.675
 10
73.675
 20
59.675
  0
LWPOLYLINE
100
AcDbEntity
  8
0
100
AcDbPolyline
 90
4
 70
1
 10
2.525
 20
40.625
 10
2.525
 20
54.625
 10
16.525
 20
54.625
 10
16.525
 20
40.625
  0
LWPOLYLINE
100
AcDbEntity
  8
0
100
AcDbPolyline
 90
4
 70
1
 10
59.675
 20
40.625
 10
59.675
 20
54.625
 10
73.675
 20
54.625
 10
73.675
 20
40.625
  0
LWPOLYLINE
100
AcDbEntity
  8
0
100
AcDbPolyline
 90
4
 70
1
 10
21.575
 20
40.625
 10
21.575
 20
54.625
 10
35.575
 20
54.625
 10
35.575
 20
40.625
  0
LWPOLYLINE
100
AcDbEntity
  8
0
100
AcDbPolyline
 90
4
 70
1
 10
40.625
 20
40.625
 10
40.625
 20
54.625
 10
54.625
 20
54.625
 10
54.625
 20
40.625
  0
LWPOLYLINE
100
AcDbEntity
  8
0
100
AcDbPolyline
 90
4
 70
1
 10
97.775
 20
40.625
 10
97.775
 20
54.625
 10
111.775
 20
54.625
 10
111.775
 20
40.625
  0
LWPOLYLINE
100
AcDbEntity
  8
0
100
AcDbPolyline
 90
4
 70
1
 10
92.725
 20
40.625
 10
78.725
 20
40.625
 10
78.725
 20
54.625
 10
92.725
 20
54.625
  0
LWPOLYLINE
100
AcDbEntity
  8
0
100
AcDbPolyline
 90
4
 70
1
 10
97.775
 20
21.575
 10
97.775
 20
35.575
 10
111.775
 20
35.575
 10
111.775
 20
21.575
  0
LWPOLYLINE
100
AcDbEntity
  8
0
100
AcDbPolyline
 90
4
 70
1
 10
59.675
 20
21.575
 10
59.675
 20
35.575
 10
73.675
 20
35.575
 10
73.675
 20
21.575
  0
LWPOLYLINE
100
AcDbEntity
  8
0
100
AcDbPolyline
 90
4
 70
1
 10
2.525
 20
21.575
 10
2.525
 20
35.575
 10
16.525
 20
35.575
 10
16.525
 20
21.575
  0
LWPOLYLINE
100
AcDbEntity
  8
0
100
AcDbPolyline
 90
4
 70
1
 10
21.575
 20
21.575
 10
21.575
 20
35.575
 10
35.575
 20
35.575
 10
35.575
 20
21.575
  0
LWPOLYLINE
100
AcDbEntity
  8
0
100
AcDbPolyline
 90
4
 70
1
 10
40.625
 20
21.575
 10
40.625
 20
35.575
 10
54.625
 20
35.575
 10
54.625
 20
21.575
  0
LWPOLYLINE
100
AcDbEntity
  8
0
100
AcDbPolyline
 90
4
 70
1
 10
78.725
 20
21.575
 10
78.725
 20
35.575
 10
92.725
 20
35.575
 10
92.725
 20
21.575
  0
LWPOLYLINE
100
AcDbEntity
  8
0
100
AcDbPolyline
 90
4
 70
1
 10
78.725
 20
2.525
 10
78.725
 20
16.525
 10
92.725
 20
16.525
 10
92.725
 20
2.525
  0
LWPOLYLINE
100
AcDbEntity
  8
0
100
AcDbPolyline
 90
4
 70
1
 10
2.525
 20
2.525
 10
2.525
 20
16.525
 10
16.525
 20
16.525
 10
16.525
 20
2.525
  0
LWPOLYLINE
100
AcDbEntity
  8
0
100
AcDbPolyline
 90
4
 70
1
 10
59.675
 20
2.525
 10
59.675
 20
16.525
 10
73.675
 20
16.525
 10
73.675
 20
2.525
  0
LWPOLYLINE
100
AcDbEntity
  8
0
100
AcDbPolyline
 90
4
 70
1
 10
40.625
 20
2.525
 10
40.625
 20
16.525
 10
54.625
 20
16.525
 10
54.625
 20
2.525
  0
LWPOLYLINE
100
AcDbEntity
  8
0
100
AcDbPolyline
 90
4
 70
1
 10
21.575
 20
2.525
 10
21.575
 20
16.525
 10
35.575
 20
16.525
 10
35.575
 20
2.525
  0
LWPOLYLINE
100
AcDbEntity
  8
0
100
AcDbPolyline
 90
5
 70
1
 10
104.652
 20
-7.47274
 10
109.708
 20
1.28374
 10
111.652
 20
4.65162
 10
123.777
 20
-2.34838
 10
116.777
 20
-14.4727
  0
LWPOLYLINE
100
AcDbEntity
  8
0
100
AcDbPolyline
 90
4
 70
1
 10
121.15
 20
-16.9977
 10
128.15
 20
-4.87338
 10
140.274
 20
-11.8734
 10
133.274
 20
-23.9977
  0
ENDSEC
  0
EOF
